<?xml version="1.0" encoding="utf-8"?>
<!-- Generator: Adobe Illustrator 19.2.1, SVG Export Plug-In . SVG Version: 6.00 Build 0)  -->
<svg version="1.1" id="Layer_1" xmlns="http://www.w3.org/2000/svg" xmlns:xlink="http://www.w3.org/1999/xlink" x="0px" y="0px"
	 viewBox="0 0 128 128" style="enable-background:new 0 0 128 128;" xml:space="preserve">
<style type="text/css">
	.st0{fill:#F7F7F7;}
	.st1{fill:#E3E3E3;}
</style>
<circle class="st0" cx="64" cy="64" r="64"/>
<g>
	<path class="st1" d="M64,23c-12.6,0-22.8,10.2-22.8,22.8c0,12.6,10.2,22.7,22.8,22.7c12.6,0,22.7-10.2,22.7-22.7
		C86.7,33.2,76.6,23,64,23z"/>
	<path class="st1" d="M64,0C28.7,0,0,28.7,0,64s28.7,64,64,64s64-28.7,64-64S99.3,0,64,0z M108,104.7C104.6,94,94.2,84.3,80.6,80.5
		C75.4,79,69.8,78.3,64,78.3c-5.8,0-11.4,0.8-16.6,2.2C33.8,84.3,23.4,94,20,104.7C10.1,94,4,79.7,4,64C4,30.9,30.9,4,64,4
		s60,26.9,60,60C124,79.7,117.9,94,108,104.7z"/>
</g>
</svg>
